<svg id="svg" version="1.1" xmlns="http://www.w3.org/2000/svg" xmlns:xlink="http://www.w3.org/1999/xlink" width="400" height="590.9873417721519" viewBox="0, 0, 400,590.9873417721519"><g id="svgg"><path id="path0" d="M395.212 230.341 C 394.950 230.493,394.276 231.072,393.715 231.627 C 393.154 232.182,391.654 233.578,390.381 234.729 C 387.607 237.240,386.014 238.702,384.613 240.025 C 384.039 240.567,382.761 241.730,381.773 242.611 C 380.785 243.491,379.799 244.389,379.582 244.606 C 379.365 244.823,377.802 246.255,376.108 247.790 C 374.415 249.325,372.613 250.976,372.103 251.460 C 371.593 251.944,370.618 252.839,369.935 253.448 C 369.253 254.058,368.160 255.083,367.508 255.727 C 366.856 256.370,366.274 256.897,366.216 256.897 C 366.100 256.897,362.252 260.437,360.125 262.500 C 359.392 263.211,358.723 263.793,358.639 263.793 C 358.554 263.793,358.016 264.292,357.442 264.901 C 356.869 265.511,356.328 266.010,356.241 266.010 C 356.155 266.010,355.612 266.509,355.037 267.118 C 354.461 267.728,353.924 268.227,353.844 268.227 C 353.765 268.227,353.230 268.725,352.656 269.335 C 352.083 269.945,351.530 270.443,351.427 270.443 C 351.325 270.443,350.780 270.944,350.215 271.557 C 349.651 272.169,349.132 272.613,349.062 272.543 C 348.992 272.473,348.723 272.764,348.464 273.189 C 348.085 273.812,348.057 274.004,348.319 274.170 C 348.638 274.372,348.598 274.407,347.968 274.483 C 347.799 274.503,347.675 274.711,347.694 274.944 C 347.713 275.178,347.618 275.369,347.483 275.369 C 347.348 275.369,347.311 275.560,347.400 275.793 C 347.490 276.026,347.484 276.138,347.388 276.041 C 347.124 275.778,346.552 276.351,346.552 276.877 C 346.552 277.132,346.441 277.340,346.307 277.340 C 346.172 277.340,345.817 277.866,345.517 278.510 C 345.218 279.153,344.813 279.802,344.616 279.950 C 344.420 280.099,344.331 280.337,344.419 280.479 C 344.507 280.621,344.408 280.802,344.199 280.882 C 343.832 281.023,343.038 282.578,343.027 283.179 C 343.024 283.342,342.937 283.424,342.833 283.360 C 342.730 283.296,342.575 283.356,342.490 283.494 C 342.405 283.631,342.459 283.744,342.611 283.744 C 342.762 283.744,342.817 283.856,342.732 283.994 C 342.646 284.132,342.479 284.184,342.360 284.110 C 342.241 284.037,342.010 284.229,341.848 284.537 C 341.686 284.846,341.410 285.183,341.235 285.287 C 341.060 285.391,340.962 285.711,341.017 285.998 C 341.072 286.285,341.052 286.455,340.973 286.375 C 340.825 286.227,340.552 286.462,339.901 287.301 C 339.564 287.735,339.571 287.762,339.976 287.611 C 340.242 287.511,340.360 287.541,340.269 287.688 C 340.186 287.821,339.971 287.931,339.790 287.931 C 339.610 287.931,339.392 288.213,339.305 288.557 C 339.219 288.901,339.049 289.121,338.927 289.046 C 338.805 288.971,338.633 289.136,338.545 289.414 C 338.457 289.691,338.144 290.152,337.850 290.439 C 337.556 290.725,337.454 290.881,337.623 290.785 C 337.792 290.690,337.931 290.729,337.931 290.872 C 337.931 291.016,337.769 291.133,337.572 291.133 C 337.374 291.133,336.914 291.659,336.548 292.303 C 336.182 292.946,335.761 293.584,335.614 293.719 C 335.356 293.956,334.674 294.908,333.059 297.287 C 332.646 297.895,332.372 298.494,332.449 298.618 C 332.526 298.743,332.466 298.769,332.316 298.676 C 332.166 298.583,331.916 298.758,331.755 299.069 C 331.596 299.378,331.264 299.852,331.019 300.123 C 330.773 300.394,330.565 300.699,330.557 300.800 C 330.549 300.902,330.367 301.179,330.154 301.416 C 329.941 301.653,328.827 303.177,327.679 304.803 C 326.531 306.429,325.375 308.032,325.111 308.366 C 324.847 308.700,324.631 309.116,324.631 309.290 C 324.631 309.464,324.535 309.606,324.419 309.606 C 324.303 309.606,323.802 310.188,323.305 310.899 C 322.809 311.610,322.070 312.635,321.662 313.177 C 321.254 313.719,320.731 314.440,320.499 314.778 C 319.952 315.578,319.868 315.689,318.844 316.957 C 318.369 317.545,317.980 318.106,317.980 318.203 C 317.980 318.301,317.780 318.595,317.536 318.857 C 317.291 319.120,316.178 320.628,315.061 322.208 C 313.945 323.789,312.870 325.216,312.673 325.379 C 312.476 325.542,312.315 325.768,312.315 325.881 C 312.315 326.059,310.900 328.090,309.412 330.049 C 309.154 330.388,308.445 331.385,307.834 332.266 C 307.224 333.147,306.099 334.754,305.334 335.837 C 304.112 337.569,301.595 341.265,300.870 342.391 C 300.730 342.609,299.444 344.548,298.011 346.701 C 294.958 351.289,293.554 353.465,292.226 355.665 C 291.695 356.546,291.183 357.324,291.089 357.394 C 290.995 357.465,290.799 357.797,290.654 358.133 C 290.509 358.469,290.086 359.259,289.715 359.889 C 289.343 360.519,288.395 362.182,287.608 363.584 C 286.821 364.986,286.074 366.299,285.947 366.502 C 285.538 367.156,284.592 368.986,282.188 373.768 C 278.839 380.430,277.692 382.900,275.209 388.793 C 274.867 389.606,274.375 390.741,274.116 391.315 C 273.857 391.889,273.645 392.476,273.645 392.618 C 273.645 392.760,273.427 393.305,273.159 393.829 C 272.892 394.353,272.522 395.208,272.336 395.728 C 271.728 397.433,270.179 401.588,269.921 402.206 C 268.996 404.422,266.061 414.090,265.618 416.379 C 265.566 416.650,265.305 417.869,265.038 419.089 C 264.260 422.646,263.581 426.328,263.313 428.448 C 263.176 429.532,263.014 430.696,262.953 431.034 C 262.683 432.541,262.422 434.895,262.189 437.931 C 262.131 438.676,262.035 439.918,261.975 440.691 C 261.914 441.465,261.783 442.230,261.682 442.392 C 261.567 442.579,261.605 442.622,261.785 442.511 C 261.955 442.406,262.069 442.495,262.069 442.734 C 262.069 442.987,261.957 443.065,261.761 442.948 C 261.582 442.840,261.607 442.956,261.823 443.227 C 262.038 443.497,262.064 443.613,261.884 443.506 C 261.661 443.372,261.576 443.562,261.576 444.197 C 261.576 445.307,261.614 445.300,262.893 443.966 C 263.477 443.356,264.002 442.857,264.059 442.856 C 264.171 442.855,268.343 439.024,270.294 437.131 C 270.957 436.487,271.569 435.961,271.655 435.961 C 271.740 435.961,272.280 435.462,272.853 434.852 C 273.427 434.243,273.962 433.744,274.042 433.744 C 274.121 433.744,274.658 433.245,275.234 432.635 C 275.810 432.026,276.366 431.527,276.469 431.527 C 276.573 431.527,277.061 431.099,277.553 430.576 C 278.045 430.053,279.778 428.431,281.404 426.973 C 283.030 425.514,284.597 424.086,284.887 423.798 C 285.177 423.511,286.213 422.555,287.189 421.675 C 288.166 420.794,289.440 419.631,290.022 419.089 C 293.979 415.401,295.684 413.878,296.145 413.617 C 296.437 413.453,296.571 413.314,296.443 413.309 C 296.316 413.304,296.414 413.152,296.662 412.971 C 296.909 412.790,297.059 412.485,296.995 412.294 C 296.930 412.102,297.016 411.613,297.185 411.207 C 297.354 410.800,297.515 410.357,297.544 410.222 C 297.573 410.086,297.694 409.719,297.813 409.405 C 297.932 409.092,298.030 408.704,298.031 408.543 C 298.032 408.383,298.188 407.954,298.377 407.590 C 298.567 407.227,298.797 406.590,298.888 406.174 C 298.979 405.759,299.162 405.419,299.295 405.419 C 299.428 405.419,299.470 405.312,299.389 405.181 C 299.309 405.050,299.471 404.496,299.749 403.949 C 300.028 403.403,300.208 402.956,300.149 402.956 C 300.090 402.956,300.375 402.269,300.782 401.429 C 301.595 399.751,302.515 397.395,302.458 397.139 C 302.437 397.050,302.521 396.908,302.643 396.826 C 302.765 396.743,304.067 394.236,305.536 391.256 C 307.004 388.276,308.284 385.782,308.380 385.714 C 308.476 385.647,308.638 385.314,308.740 384.975 C 308.842 384.637,309.063 384.193,309.232 383.990 C 309.401 383.787,310.015 382.734,310.597 381.650 C 311.180 380.567,311.749 379.643,311.862 379.598 C 311.976 379.553,312.069 379.340,312.069 379.124 C 312.069 378.909,312.215 378.558,312.394 378.345 C 312.573 378.131,313.542 376.575,314.549 374.887 C 315.556 373.199,316.490 371.642,316.626 371.427 C 316.761 371.211,317.094 370.672,317.365 370.228 C 319.166 367.277,324.777 358.813,325.308 358.246 C 325.477 358.065,325.616 357.853,325.616 357.775 C 325.616 357.696,326.586 356.293,327.771 354.656 C 328.956 353.019,330.037 351.498,330.172 351.274 C 330.308 351.051,331.241 349.758,332.246 348.402 C 333.251 347.046,334.686 345.049,335.435 343.966 C 336.183 342.882,336.885 341.958,336.994 341.913 C 337.103 341.868,337.192 341.674,337.192 341.482 C 337.192 341.290,337.287 341.133,337.402 341.133 C 337.518 341.133,338.123 340.385,338.748 339.470 C 339.373 338.556,340.248 337.301,340.693 336.682 C 342.129 334.686,344.971 330.681,345.335 330.140 C 346.144 328.940,349.126 324.744,349.250 324.631 C 349.324 324.563,349.826 323.842,350.366 323.030 C 350.906 322.217,351.416 321.496,351.500 321.429 C 351.583 321.361,352.637 319.826,353.843 318.018 C 355.048 316.210,356.256 314.424,356.527 314.048 C 357.968 312.051,367.606 297.364,368.971 295.084 C 369.178 294.740,369.740 293.849,370.221 293.103 C 371.099 291.746,373.342 287.866,375.314 284.296 C 376.225 282.647,381.668 271.711,382.270 270.320 C 382.387 270.049,382.835 268.996,383.264 267.980 C 383.693 266.964,384.190 265.800,384.369 265.394 C 384.548 264.988,385.044 263.768,385.471 262.685 C 385.897 261.601,386.432 260.275,386.658 259.737 C 386.884 259.200,387.071 258.701,387.073 258.629 C 387.075 258.557,387.164 258.359,387.272 258.190 C 387.380 258.020,387.403 257.882,387.323 257.882 C 387.244 257.882,387.354 257.545,387.566 257.134 C 387.779 256.722,388.231 255.586,388.570 254.609 C 389.685 251.397,390.678 248.406,390.760 248.016 C 390.804 247.805,391.012 247.222,391.222 246.720 C 391.431 246.217,391.839 244.893,392.127 243.778 C 392.415 242.662,392.746 241.527,392.863 241.256 C 393.074 240.765,393.447 239.260,393.472 238.793 C 393.480 238.658,393.573 238.408,393.679 238.239 C 393.785 238.070,393.792 237.803,393.696 237.647 C 393.579 237.458,393.629 237.430,393.843 237.562 C 394.084 237.711,394.131 237.626,394.027 237.231 C 393.951 236.939,393.996 236.700,394.128 236.700 C 394.260 236.700,394.299 236.483,394.215 236.218 C 394.129 235.945,394.239 235.468,394.469 235.116 C 394.693 234.775,394.893 234.050,394.913 233.505 C 394.934 232.961,395.040 232.514,395.150 232.514 C 395.260 232.513,395.288 232.413,395.213 232.292 C 395.138 232.171,395.238 231.617,395.434 231.061 C 395.630 230.504,395.768 230.053,395.740 230.057 C 395.712 230.061,395.475 230.189,395.212 230.341 M352.513 265.334 C 352.249 265.652,351.797 267.215,352.033 266.995 C 352.205 266.835,352.955 265.025,352.850 265.025 C 352.806 265.025,352.654 265.164,352.513 265.334 M351.054 268.534 C 350.572 269.157,350.408 269.539,350.700 269.359 C 350.991 269.179,351.575 268.227,351.394 268.227 C 351.338 268.227,351.185 268.365,351.054 268.534 M146.479 450.989 C 146.408 451.261,146.441 451.788,146.553 452.158 C 146.728 452.741,146.759 452.673,146.777 451.663 C 146.799 450.419,146.692 450.176,146.479 450.989 M146.675 455.900 C 146.675 456.832,146.758 457.678,146.860 457.779 C 147.088 458.008,147.073 455.208,146.842 454.627 C 146.750 454.395,146.675 454.968,146.675 455.900 M145.782 458.954 C 144.808 459.800,141.295 463.018,139.423 464.778 C 137.589 466.504,136.556 467.449,133.374 470.317 C 131.749 471.782,129.999 473.408,129.486 473.929 C 128.973 474.450,128.464 474.877,128.356 474.877 C 128.248 474.877,127.725 475.373,127.195 475.979 C 126.665 476.584,126.121 477.086,125.985 477.094 C 125.850 477.101,125.305 477.603,124.775 478.209 C 124.245 478.815,123.723 479.310,123.614 479.310 C 123.506 479.310,122.998 479.737,122.485 480.258 C 121.971 480.779,120.831 481.858,119.951 482.657 C 119.070 483.455,118.377 484.193,118.411 484.295 C 118.445 484.398,118.369 484.483,118.242 484.483 C 117.950 484.483,117.949 485.672,118.237 490.148 C 118.363 492.112,118.528 495.548,118.602 497.783 C 118.677 500.018,118.953 503.953,119.216 506.527 C 119.479 509.101,119.757 511.927,119.835 512.808 C 120.396 519.183,122.335 529.272,124.330 536.207 C 124.934 538.307,125.481 540.246,125.545 540.517 C 125.664 541.022,126.647 543.598,127.249 544.988 C 127.435 545.415,127.586 545.858,127.587 545.973 C 127.589 547.011,132.936 556.426,134.735 558.559 C 134.878 558.728,134.927 558.867,134.844 558.867 C 134.762 558.867,134.866 559.039,135.075 559.249 C 135.285 559.459,135.559 559.813,135.685 560.037 C 135.879 560.383,136.123 560.246,137.353 559.100 C 138.145 558.362,139.211 557.370,139.722 556.896 C 140.234 556.422,141.187 555.536,141.842 554.926 C 142.496 554.317,144.073 552.876,145.345 551.724 C 146.618 550.573,148.158 549.169,148.768 548.606 C 149.378 548.042,150.641 546.879,151.575 546.020 C 152.509 545.161,153.574 544.181,153.942 543.842 C 156.844 541.170,157.311 540.666,157.141 540.392 C 157.000 540.163,156.925 540.172,156.823 540.428 C 156.738 540.640,156.682 540.582,156.669 540.271 C 156.658 540.000,156.440 539.437,156.185 539.019 C 155.931 538.601,155.640 537.881,155.540 537.418 C 155.439 536.955,155.288 536.521,155.203 536.453 C 155.118 536.385,154.899 535.942,154.715 535.468 C 154.532 534.994,154.004 533.631,153.542 532.440 C 153.081 531.249,152.666 530.085,152.620 529.854 C 152.574 529.623,152.475 529.267,152.399 529.064 C 151.767 527.369,150.246 521.809,150.246 521.191 C 150.246 520.937,150.034 519.805,149.774 518.677 C 149.514 517.549,149.232 515.923,149.149 515.065 C 149.065 514.206,148.829 512.322,148.626 510.877 C 148.365 509.026,148.190 504.402,148.035 495.197 C 147.913 488.017,147.752 481.090,147.677 479.803 C 147.602 478.516,147.477 474.803,147.398 471.552 C 147.320 468.300,147.164 465.031,147.052 464.286 C 146.939 463.541,146.879 462.044,146.917 460.961 C 147.015 458.198,146.896 457.987,145.782 458.954 M117.536 476.970 C 117.553 478.671,117.556 478.678,117.729 477.463 C 117.826 476.786,117.818 476.010,117.712 475.739 C 117.592 475.433,117.525 475.899,117.536 476.970 M117.751 482.771 C 117.766 483.569,117.784 483.586,118.038 483.058 C 118.238 482.643,118.234 482.421,118.022 482.209 C 117.802 481.990,117.738 482.123,117.751 482.771 " stroke="none" fill="#1c5cd4" fill-rule="evenodd"></path><path id="path1" d="M293.998 15.761 C 294.337 16.083,296.059 16.742,296.059 16.550 C 296.059 16.454,295.547 16.191,294.921 15.966 C 294.296 15.741,293.880 15.649,293.998 15.761 M298.373 17.796 C 298.446 18.033,298.427 18.227,298.329 18.227 C 298.231 18.227,297.486 18.848,296.674 19.607 C 294.322 21.805,293.649 22.421,290.517 25.240 C 288.892 26.703,287.159 28.329,286.666 28.852 C 286.174 29.375,285.686 29.803,285.583 29.803 C 285.479 29.803,284.923 30.302,284.347 30.911 C 283.771 31.521,283.235 32.020,283.155 32.020 C 283.075 32.020,282.540 32.518,281.967 33.128 C 281.393 33.738,280.865 34.238,280.794 34.239 C 280.723 34.240,279.723 35.137,278.571 36.231 C 275.623 39.034,274.950 39.530,274.548 39.196 C 274.300 38.990,274.220 39.013,274.220 39.290 C 274.220 39.491,274.396 39.658,274.610 39.661 C 274.825 39.664,275.665 39.950,276.478 40.295 C 277.291 40.641,278.122 40.951,278.325 40.985 C 278.528 41.019,279.138 41.257,279.680 41.513 C 280.222 41.770,280.776 41.994,280.911 42.011 C 281.385 42.072,282.146 42.443,282.600 42.833 C 282.851 43.049,283.073 43.191,283.092 43.148 C 283.212 42.885,292.139 47.283,294.914 48.973 C 295.843 49.538,296.668 50.000,296.748 50.000 C 296.829 50.000,297.289 50.260,297.770 50.578 C 298.251 50.897,299.255 51.546,300.000 52.021 C 300.745 52.497,301.842 53.206,302.437 53.598 C 303.032 53.990,303.704 54.421,303.930 54.557 C 304.157 54.692,305.000 55.278,305.804 55.859 C 306.608 56.439,308.374 57.698,309.729 58.656 C 311.084 59.614,312.303 60.525,312.438 60.679 C 312.574 60.834,313.755 61.814,315.062 62.858 C 318.935 65.949,324.960 71.731,328.204 75.469 C 329.016 76.404,329.996 77.509,330.383 77.924 C 331.011 78.598,335.652 84.507,337.565 87.069 C 339.012 89.006,344.524 97.216,345.917 99.507 C 346.205 99.982,346.576 100.591,346.740 100.862 C 347.061 101.389,347.638 102.407,349.391 105.542 C 350.673 107.832,353.705 113.970,355.050 116.995 C 356.529 120.323,356.677 120.682,356.770 121.163 C 356.818 121.413,357.088 122.094,357.369 122.677 C 357.651 123.261,357.882 123.917,357.882 124.135 C 357.882 124.353,357.995 124.645,358.134 124.784 C 358.272 124.922,358.649 125.859,358.971 126.865 C 359.572 128.740,359.720 129.166,360.808 132.143 C 361.154 133.091,361.455 133.950,361.476 134.052 C 361.497 134.153,361.538 134.264,361.566 134.298 C 361.616 134.358,361.787 135.273,361.866 135.899 C 361.887 136.068,362.009 136.207,362.136 136.207 C 362.264 136.207,362.308 136.362,362.235 136.552 C 362.163 136.742,362.172 136.967,362.257 137.052 C 362.410 137.204,362.539 137.663,362.654 138.465 C 362.687 138.690,362.859 139.051,363.037 139.265 C 363.257 139.531,363.271 139.655,363.081 139.655 C 362.889 139.655,362.919 139.936,363.174 140.547 C 363.379 141.038,363.547 141.654,363.547 141.917 C 363.547 142.233,363.651 142.331,363.855 142.209 C 364.085 142.070,364.082 142.123,363.843 142.418 C 363.667 142.636,363.616 142.871,363.729 142.941 C 363.843 143.011,364.153 142.744,364.419 142.348 C 364.684 141.951,364.970 141.627,365.055 141.626 C 365.139 141.626,365.804 141.065,366.532 140.380 C 369.098 137.968,370.363 136.802,372.670 134.729 C 373.952 133.578,375.594 132.054,376.320 131.342 C 377.046 130.631,377.700 130.049,377.773 130.049 C 377.847 130.049,378.378 129.550,378.953 128.941 C 379.529 128.331,380.095 127.832,380.210 127.831 C 380.325 127.829,380.859 127.331,381.396 126.722 C 381.934 126.114,382.448 125.616,382.539 125.616 C 382.630 125.616,383.248 125.089,383.911 124.446 C 386.347 122.081,387.656 120.936,387.922 120.936 C 388.118 120.936,388.121 120.798,387.931 120.443 C 387.786 120.172,387.738 119.951,387.824 119.951 C 387.909 119.951,387.747 119.556,387.462 119.074 C 387.178 118.592,387.056 118.266,387.192 118.349 C 387.327 118.433,387.438 118.385,387.438 118.241 C 387.438 118.098,387.340 117.980,387.219 117.980 C 387.050 117.980,386.618 116.873,386.669 116.569 C 386.674 116.537,386.521 116.136,386.329 115.676 C 386.137 115.217,386.050 114.771,386.135 114.686 C 386.220 114.602,386.160 114.532,386.002 114.532 C 385.844 114.532,385.727 114.449,385.743 114.347 C 385.814 113.898,385.698 113.528,385.521 113.637 C 385.414 113.703,385.319 113.571,385.309 113.344 C 385.275 112.562,385.011 111.697,384.472 110.605 C 384.175 110.003,383.912 109.393,383.886 109.250 C 383.861 109.107,383.597 108.450,383.299 107.789 C 383.002 107.128,382.759 106.501,382.759 106.395 C 382.759 106.290,382.474 105.655,382.126 104.984 C 381.778 104.314,381.468 103.611,381.435 103.422 C 381.403 103.233,381.187 102.720,380.954 102.281 C 380.722 101.842,380.555 101.454,380.583 101.419 C 380.612 101.384,380.326 100.828,379.949 100.185 C 379.572 99.541,379.357 99.013,379.472 99.011 C 379.586 99.009,379.569 98.926,379.433 98.826 C 379.298 98.727,378.411 97.105,377.463 95.223 C 376.515 93.340,375.612 91.669,375.457 91.510 C 375.302 91.351,374.939 90.730,374.649 90.130 C 374.360 89.530,373.775 88.485,373.350 87.808 C 372.434 86.347,368.583 80.140,368.155 79.433 C 367.991 79.163,367.797 78.885,367.723 78.818 C 367.650 78.750,366.521 77.087,365.214 75.123 C 362.602 71.195,361.195 69.139,360.458 68.172 C 360.193 67.823,359.754 67.227,359.483 66.848 C 359.212 66.468,358.464 65.519,357.820 64.740 C 357.177 63.960,356.650 63.216,356.650 63.086 C 356.650 62.955,356.567 62.812,356.466 62.767 C 356.364 62.722,355.671 61.964,354.926 61.084 C 353.321 59.186,353.623 59.528,350.864 56.497 C 347.947 53.293,343.378 48.744,340.021 45.701 C 338.533 44.352,337.204 43.120,337.069 42.963 C 336.873 42.736,331.625 38.322,330.244 37.223 C 330.069 37.084,329.483 36.599,328.941 36.145 C 326.118 33.780,318.934 28.571,318.495 28.571 C 318.380 28.571,318.155 28.412,317.994 28.218 C 317.832 28.024,317.237 27.619,316.670 27.319 C 314.900 26.380,314.668 26.245,313.913 25.717 C 313.508 25.435,313.011 25.128,312.808 25.037 C 312.605 24.945,311.995 24.610,311.453 24.291 C 310.911 23.972,309.914 23.409,309.236 23.039 C 308.559 22.669,307.866 22.253,307.697 22.114 C 307.528 21.975,307.387 21.958,307.385 22.076 C 307.383 22.194,307.300 22.180,307.201 22.044 C 307.024 21.804,305.230 20.819,304.945 20.806 C 304.867 20.803,304.526 20.615,304.187 20.388 C 303.237 19.752,301.808 19.212,301.593 19.406 C 301.486 19.503,301.469 19.459,301.554 19.309 C 301.720 19.018,300.587 18.386,300.261 18.587 C 300.154 18.653,299.868 18.489,299.625 18.221 C 299.383 17.953,299.063 17.736,298.915 17.738 C 298.767 17.740,298.812 17.849,299.015 17.980 C 299.241 18.126,299.269 18.221,299.089 18.223 C 298.926 18.225,298.668 18.033,298.516 17.796 C 298.252 17.385,298.245 17.385,298.373 17.796 M293.842 121.027 C 293.368 121.200,292.315 121.708,291.502 122.156 C 290.690 122.604,289.203 123.401,288.199 123.927 C 287.195 124.453,286.252 124.979,286.105 125.095 C 285.958 125.212,284.507 126.001,282.882 126.849 C 279.594 128.564,278.307 129.259,274.858 131.179 C 273.561 131.901,272.231 132.612,271.903 132.759 C 271.574 132.906,271.083 133.160,270.812 133.323 C 270.541 133.487,269.100 134.275,267.610 135.076 C 264.519 136.736,263.104 137.504,261.700 138.286 C 261.158 138.587,259.938 139.254,258.990 139.768 C 258.042 140.282,257.155 140.788,257.020 140.892 C 256.884 140.996,256.219 141.388,255.542 141.764 C 253.192 143.065,247.227 146.471,246.305 147.037 C 246.102 147.162,244.938 147.846,243.719 148.557 C 242.500 149.267,240.758 150.326,239.848 150.910 C 238.938 151.493,238.140 151.970,238.075 151.970 C 237.945 151.970,234.259 154.267,231.098 156.318 C 229.982 157.043,229.019 157.635,228.959 157.635 C 228.898 157.635,228.120 158.134,227.230 158.744 C 226.340 159.353,225.552 159.852,225.479 159.852 C 225.407 159.852,225.056 160.123,224.699 160.454 L 224.049 161.056 224.648 161.554 C 224.977 161.828,225.330 162.056,225.433 162.061 C 225.536 162.065,226.561 162.679,227.712 163.424 C 231.364 165.790,233.842 167.375,234.662 167.870 C 235.099 168.134,237.094 169.380,239.095 170.639 C 241.097 171.898,242.956 173.059,243.227 173.219 C 246.862 175.366,247.793 176.511,247.439 178.399 C 247.210 179.623,239.482 194.639,236.957 198.768 C 236.833 198.972,236.210 200.025,235.573 201.108 C 234.367 203.162,233.655 204.295,231.629 207.389 C 230.963 208.405,230.374 209.347,230.319 209.483 C 230.264 209.618,229.959 210.072,229.641 210.491 C 229.324 210.910,229.064 211.381,229.064 211.538 C 229.064 211.695,228.977 211.823,228.871 211.823 C 228.765 211.823,228.466 212.183,228.207 212.623 C 227.759 213.385,226.063 215.818,225.245 216.872 C 225.035 217.143,224.244 218.196,223.487 219.212 C 222.233 220.894,219.694 224.110,219.089 224.780 C 218.953 224.931,218.233 225.749,217.488 226.599 C 213.993 230.585,207.424 234.614,203.571 235.134 C 201.209 235.453,198.762 235.582,197.905 235.433 C 196.045 235.108,195.683 235.014,193.350 234.248 C 186.102 231.869,180.581 227.951,173.030 219.826 C 168.698 215.166,165.066 211.699,162.438 209.716 C 161.761 209.205,160.764 208.428,160.222 207.988 C 158.848 206.874,155.034 204.282,148.276 199.870 C 140.622 194.874,131.164 195.209,121.543 200.816 C 117.048 203.436,109.252 213.818,108.555 218.112 C 108.512 218.378,108.188 219.372,107.836 220.320 C 106.711 223.343,105.504 228.640,104.074 236.823 C 104.003 237.229,103.882 238.060,103.807 238.670 C 103.731 239.280,103.459 240.887,103.202 242.241 C 102.945 243.596,102.689 245.092,102.632 245.567 C 102.480 246.845,100.374 257.142,99.609 260.345 C 98.842 263.559,96.946 270.115,96.440 271.306 C 96.266 271.713,96.042 272.434,95.940 272.907 C 95.839 273.381,95.670 273.879,95.565 274.015 C 95.460 274.150,95.201 274.760,94.989 275.369 C 93.683 279.129,89.928 286.890,87.984 289.848 C 81.674 299.448,75.220 300.372,64.813 293.166 C 63.215 292.060,62.849 291.788,60.917 290.271 C 58.648 288.490,55.117 285.045,53.018 282.563 C 52.374 281.802,51.681 280.989,51.478 280.755 C 50.879 280.067,50.671 279.782,49.192 277.628 C 48.417 276.500,47.783 275.531,47.783 275.475 C 47.783 275.420,47.284 274.596,46.675 273.645 C 46.065 272.694,45.567 271.854,45.567 271.778 C 45.567 271.702,45.262 271.121,44.890 270.487 C 44.518 269.853,44.209 269.280,44.204 269.212 C 44.198 269.144,43.705 268.091,43.107 266.872 C 42.509 265.653,41.986 264.451,41.944 264.201 C 41.902 263.952,41.703 263.512,41.501 263.223 C 41.298 262.934,41.133 262.446,41.133 262.137 C 41.133 261.829,41.026 261.576,40.894 261.576 C 40.763 261.576,40.715 261.421,40.788 261.232 C 40.861 261.042,40.802 260.814,40.657 260.725 C 40.512 260.635,40.394 260.347,40.394 260.084 C 40.394 259.821,40.298 259.606,40.180 259.606 C 40.063 259.606,39.906 259.154,39.832 258.602 C 39.758 258.049,39.494 257.431,39.245 257.229 C 38.996 257.026,38.927 256.927,39.091 257.010 C 39.465 257.198,39.006 255.750,38.615 255.508 C 38.443 255.401,38.440 255.493,38.608 255.792 C 38.811 256.155,38.675 256.371,37.839 257.012 C 37.280 257.440,36.486 258.115,36.075 258.513 C 35.664 258.911,34.231 260.234,32.892 261.453 C 31.553 262.672,30.159 263.947,29.795 264.286 C 29.431 264.624,28.338 265.622,27.367 266.502 C 26.395 267.383,25.128 268.547,24.550 269.089 C 23.972 269.631,22.456 271.016,21.182 272.167 C 19.908 273.319,18.329 274.788,17.672 275.431 C 17.016 276.075,16.290 276.604,16.060 276.608 C 15.666 276.616,15.666 276.631,16.061 276.861 C 16.293 276.996,16.421 277.265,16.347 277.459 C 16.179 277.896,17.003 279.827,17.284 279.654 C 17.461 279.544,17.596 280.078,17.520 280.593 C 17.480 280.868,21.199 288.252,21.620 288.732 C 21.827 288.969,21.908 289.163,21.798 289.163 C 21.688 289.163,21.769 289.357,21.977 289.594 C 22.186 289.831,22.592 290.468,22.880 291.010 C 23.455 292.090,23.765 292.605,24.507 293.713 C 24.778 294.117,25.111 294.628,25.246 294.849 C 26.821 297.412,30.416 302.112,32.759 304.671 C 38.582 311.032,43.236 314.867,51.100 319.784 C 52.612 320.729,59.138 323.939,60.961 324.634 C 61.773 324.944,62.897 325.397,63.458 325.641 C 64.019 325.886,64.795 326.159,65.182 326.250 C 65.570 326.340,66.552 326.619,67.365 326.869 C 68.177 327.119,69.292 327.374,69.842 327.436 C 70.392 327.497,71.556 327.685,72.428 327.852 C 77.312 328.791,86.104 327.756,90.586 325.715 C 91.300 325.390,91.950 325.123,92.028 325.123 C 94.964 325.123,105.542 316.417,110.437 309.972 C 112.668 307.035,113.910 305.343,114.153 304.908 C 114.294 304.657,115.016 303.422,115.759 302.164 C 117.134 299.836,119.216 295.699,120.133 293.473 C 120.413 292.796,120.917 291.576,121.254 290.764 C 121.590 289.951,122.166 288.344,122.533 287.192 C 122.899 286.041,123.353 284.655,123.542 284.113 C 123.730 283.571,123.989 282.629,124.116 282.020 C 124.244 281.410,124.576 280.025,124.854 278.941 C 125.133 277.857,125.589 275.862,125.869 274.507 C 126.148 273.153,126.645 270.825,126.972 269.335 C 127.300 267.845,127.855 265.296,128.208 263.670 C 128.560 262.044,129.013 260.105,129.215 259.360 C 129.417 258.615,129.675 257.451,129.790 256.773 C 129.991 255.586,130.558 253.145,131.534 249.261 C 131.790 248.245,132.056 247.081,132.126 246.675 C 132.299 245.668,133.180 241.757,133.874 238.916 C 134.189 237.629,134.690 235.468,134.988 234.113 C 136.537 227.083,138.077 226.595,142.857 231.619 C 148.121 237.151,150.602 239.557,154.444 242.854 C 156.398 244.531,162.389 249.106,164.286 250.370 C 164.895 250.776,165.609 251.302,165.872 251.539 C 166.134 251.776,166.424 251.970,166.515 251.970 C 166.606 251.970,167.112 252.302,167.639 252.706 C 169.022 253.770,168.915 253.695,171.188 255.205 C 173.920 257.021,176.826 258.867,176.954 258.867 C 177.009 258.867,177.978 259.396,179.106 260.043 C 181.861 261.623,188.038 264.343,189.532 264.634 C 189.803 264.686,190.690 264.901,191.502 265.111 C 193.736 265.687,194.230 265.747,196.911 265.774 C 199.032 265.795,203.678 265.284,204.960 264.887 C 205.181 264.819,205.791 264.710,206.314 264.644 C 206.838 264.579,208.135 264.302,209.197 264.029 C 210.259 263.756,211.422 263.494,211.783 263.448 C 212.143 263.402,212.882 263.195,213.424 262.989 C 213.966 262.783,215.074 262.418,215.887 262.178 C 216.700 261.938,217.752 261.574,218.227 261.369 C 218.701 261.164,219.215 260.972,219.369 260.943 C 219.909 260.839,225.001 258.297,225.082 258.090 C 225.127 257.976,225.297 257.882,225.458 257.882 C 225.620 257.882,226.103 257.561,226.532 257.170 C 226.961 256.778,227.359 256.505,227.416 256.562 C 227.474 256.620,227.866 256.273,228.288 255.793 C 228.710 255.312,229.085 254.943,229.121 254.973 C 229.302 255.121,230.250 254.066,230.122 253.859 C 230.040 253.727,230.084 253.687,230.220 253.771 C 230.527 253.960,231.848 252.620,231.600 252.371 C 231.500 252.272,231.582 252.248,231.781 252.318 C 232.006 252.398,232.463 252.038,232.991 251.362 C 233.458 250.766,233.901 250.291,233.976 250.307 C 234.199 250.355,236.453 248.061,236.453 247.787 C 236.453 247.650,236.536 247.536,236.638 247.536 C 236.740 247.535,237.211 247.145,237.685 246.669 C 238.159 246.192,238.962 245.399,239.470 244.906 C 239.978 244.413,240.394 243.843,240.394 243.639 C 240.394 243.435,240.466 243.340,240.554 243.427 C 240.715 243.588,240.825 243.477,242.691 241.275 C 243.257 240.607,244.015 239.748,244.378 239.366 C 244.740 238.983,244.961 238.670,244.870 238.670 C 244.779 238.669,245.009 238.407,245.382 238.087 C 245.754 237.766,246.059 237.388,246.059 237.246 C 246.059 237.103,246.149 236.950,246.259 236.905 C 246.503 236.805,248.522 234.077,248.522 233.848 C 248.522 233.759,248.859 233.283,249.270 232.791 C 250.372 231.472,250.493 231.313,250.493 231.183 C 250.493 231.118,251.296 229.862,252.278 228.391 C 253.260 226.921,254.397 225.080,254.803 224.300 C 255.209 223.521,255.736 222.671,255.973 222.412 C 256.210 222.154,256.404 221.780,256.404 221.583 C 256.404 221.385,256.506 221.186,256.632 221.141 C 256.757 221.096,256.896 220.897,256.940 220.699 C 256.984 220.501,257.104 220.224,257.208 220.084 C 257.896 219.148,258.621 217.915,258.621 217.681 C 258.621 217.528,258.774 217.228,258.960 217.014 C 259.147 216.801,259.712 215.850,260.215 214.901 C 260.719 213.953,261.453 212.623,261.847 211.946 C 262.242 211.268,262.757 210.326,262.994 209.852 C 263.230 209.378,263.489 208.935,263.570 208.867 C 263.650 208.799,264.019 208.135,264.390 207.392 C 264.760 206.648,265.151 205.983,265.257 205.914 C 265.364 205.845,265.701 205.295,266.007 204.692 C 267.036 202.663,271.225 196.299,272.374 195.019 C 274.411 192.751,276.799 192.954,280.450 195.704 C 280.873 196.023,281.289 196.215,281.374 196.131 C 281.458 196.046,281.527 196.106,281.527 196.264 C 281.527 196.422,281.643 196.552,281.785 196.552 C 281.927 196.552,282.620 196.921,283.325 197.371 C 284.029 197.822,284.717 198.226,284.852 198.269 C 284.988 198.312,285.967 198.886,287.029 199.544 C 288.091 200.203,289.060 200.679,289.184 200.602 C 289.308 200.526,289.409 200.610,289.409 200.788 C 289.409 201.268,290.323 201.796,290.480 201.407 C 290.548 201.239,290.610 201.297,290.621 201.539 C 290.632 201.776,290.751 201.984,290.887 202.001 C 291.022 202.018,291.216 202.047,291.318 202.066 C 291.419 202.084,292.015 202.454,292.641 202.887 C 293.267 203.321,293.849 203.606,293.934 203.521 C 294.019 203.436,294.089 203.502,294.089 203.668 C 294.089 203.834,294.200 203.901,294.335 203.818 C 294.470 203.734,294.581 203.766,294.581 203.888 C 294.581 204.011,295.164 204.130,295.876 204.153 C 297.166 204.196,297.172 204.192,297.600 203.205 C 298.105 202.038,298.126 201.882,297.745 202.117 C 297.550 202.237,297.529 202.184,297.677 201.947 C 297.795 201.757,297.910 201.488,297.931 201.349 C 298.120 200.110,298.162 123.374,297.974 122.678 C 297.466 120.798,296.032 120.226,293.842 121.027 M37.380 251.612 C 37.445 251.949,37.579 252.274,37.679 252.336 C 37.778 252.398,37.807 252.173,37.743 251.836 C 37.679 251.500,37.544 251.174,37.445 251.112 C 37.345 251.051,37.316 251.276,37.380 251.612 M12.503 268.607 C 12.568 268.944,12.702 269.270,12.802 269.331 C 12.901 269.393,12.930 269.168,12.866 268.831 C 12.802 268.495,12.667 268.169,12.568 268.107 C 12.468 268.046,12.439 268.271,12.503 268.607 M15.033 275.012 C 15.038 275.141,15.209 275.523,15.413 275.862 L 15.784 276.478 15.623 275.862 C 15.455 275.220,15.018 274.589,15.033 275.012 M103.698 374.875 C 103.506 374.993,103.268 375.041,103.169 374.980 C 103.070 374.919,102.919 374.983,102.833 375.123 C 102.746 375.263,102.567 375.310,102.434 375.228 C 102.302 375.147,102.005 375.161,101.774 375.262 C 101.543 375.362,101.091 375.466,100.769 375.493 C 100.447 375.521,100.080 375.728,99.953 375.954 C 99.827 376.180,99.622 376.303,99.499 376.226 C 99.213 376.049,96.114 377.533,95.871 377.963 C 95.771 378.140,95.524 378.322,95.322 378.367 C 94.837 378.474,92.857 380.533,92.857 380.930 C 92.857 381.100,92.774 381.277,92.672 381.322 C 92.301 381.487,91.655 383.012,91.749 383.501 C 91.803 383.777,91.756 383.948,91.646 383.880 C 91.081 383.531,90.957 389.586,91.507 390.650 C 91.713 391.048,91.880 391.431,91.877 391.500 C 91.857 392.004,91.901 392.118,92.118 392.118 C 92.254 392.118,92.365 391.952,92.365 391.749 C 92.365 391.546,92.457 391.379,92.570 391.379 C 92.683 391.379,93.528 390.659,94.449 389.778 C 95.369 388.898,96.180 388.177,96.251 388.177 C 96.321 388.177,96.908 387.651,97.555 387.007 C 99.172 385.398,100.166 384.474,103.448 381.529 C 105.006 380.131,106.780 378.515,107.389 377.938 C 107.999 377.360,108.915 376.504,109.424 376.035 C 110.264 375.263,110.304 375.170,109.855 375.053 C 109.570 374.978,109.358 375.044,109.356 375.208 C 109.354 375.366,109.248 375.328,109.118 375.123 C 108.858 374.712,104.682 374.566,104.680 374.969 C 104.680 375.087,104.538 375.065,104.364 374.921 C 104.173 374.763,103.909 374.745,103.698 374.875 " stroke="none" fill="#1479ed" fill-rule="evenodd"></path><path id="path2" d="M298.170 408.023 C 298.080 408.383,298.061 408.734,298.129 408.802 C 298.196 408.870,298.326 408.630,298.417 408.269 C 298.507 407.908,298.526 407.557,298.458 407.489 C 298.390 407.422,298.261 407.662,298.170 408.023 M297.116 411.339 C 296.965 411.741,296.930 412.069,297.039 412.069 C 297.241 412.069,297.630 410.848,297.476 410.695 C 297.430 410.648,297.268 410.938,297.116 411.339 M296.395 413.226 C 296.490 413.321,296.353 413.515,296.092 413.657 C 295.677 413.883,293.946 415.432,290.022 419.089 C 289.440 419.631,288.166 420.794,287.189 421.675 C 286.213 422.555,285.177 423.511,284.887 423.798 C 284.597 424.086,283.030 425.514,281.404 426.973 C 279.778 428.431,278.045 430.053,277.553 430.576 C 277.061 431.099,276.573 431.527,276.469 431.527 C 276.366 431.527,275.810 432.026,275.234 432.635 C 274.658 433.245,274.121 433.744,274.042 433.744 C 273.962 433.744,273.427 434.243,272.853 434.852 C 272.280 435.462,271.752 435.961,271.681 435.962 C 271.548 435.963,267.566 439.605,265.421 441.687 C 264.758 442.331,264.157 442.857,264.085 442.857 C 264.014 442.857,263.477 443.356,262.893 443.966 C 262.309 444.575,261.714 445.074,261.571 445.074 C 261.427 445.074,261.316 445.490,261.322 445.998 C 261.329 446.506,261.278 448.362,261.210 450.123 C 261.142 451.884,260.919 461.749,260.716 472.044 C 260.513 482.340,260.287 491.373,260.215 492.118 C 260.143 492.863,259.976 496.133,259.845 499.384 C 259.714 502.635,259.445 506.626,259.247 508.251 C 259.050 509.877,258.825 512.038,258.748 513.054 C 258.475 516.657,256.886 526.484,255.881 530.788 C 255.612 531.940,255.349 533.214,255.296 533.621 C 255.243 534.027,254.975 535.025,254.700 535.837 C 254.424 536.650,254.197 537.511,254.193 537.750 C 254.190 537.989,254.080 538.376,253.948 538.612 C 253.817 538.847,253.300 539.926,252.800 541.010 C 251.785 543.208,250.783 544.911,249.797 546.117 C 248.982 547.113,245.061 551.019,244.538 551.355 C 244.328 551.490,243.528 552.017,242.762 552.525 C 241.996 553.033,241.302 553.448,241.219 553.448 C 241.136 553.448,240.667 553.698,240.177 554.002 C 239.687 554.307,238.953 554.684,238.547 554.839 C 235.773 555.899,233.463 556.727,232.512 557.003 C 231.903 557.180,230.905 557.497,230.296 557.707 C 228.133 558.453,225.974 559.090,225.123 559.231 C 224.649 559.310,223.762 559.530,223.153 559.719 C 222.543 559.909,221.712 560.121,221.305 560.190 C 220.899 560.260,219.070 560.591,217.241 560.926 C 205.671 563.045,192.104 562.122,182.911 558.590 C 182.249 558.336,181.605 558.128,181.478 558.128 C 181.352 558.128,180.643 557.851,179.903 557.512 C 179.163 557.174,178.463 556.897,178.349 556.897 C 178.234 556.897,177.628 556.610,177.001 556.260 C 176.375 555.909,175.862 555.701,175.862 555.797 C 175.862 555.893,175.724 555.862,175.554 555.728 C 175.385 555.594,174.581 555.119,173.768 554.672 C 172.956 554.225,171.958 553.659,171.552 553.414 C 171.145 553.169,170.376 552.731,169.843 552.441 C 169.310 552.151,168.720 551.760,168.532 551.572 C 168.345 551.385,168.042 551.232,167.860 551.232 C 167.678 551.232,167.492 551.137,167.447 551.022 C 167.371 550.829,165.870 549.774,164.710 549.099 C 164.440 548.942,164.151 548.711,164.068 548.587 C 163.984 548.463,163.495 548.079,162.979 547.733 C 162.464 547.387,161.788 546.760,161.478 546.339 C 161.167 545.918,160.841 545.646,160.752 545.734 C 160.664 545.823,160.591 545.672,160.591 545.399 C 160.591 545.127,160.369 544.703,160.099 544.458 C 159.828 544.213,159.606 543.923,159.606 543.814 C 159.606 543.445,157.566 540.887,157.271 540.887 C 157.110 540.887,156.700 541.192,156.361 541.564 C 156.022 541.937,154.965 542.939,154.013 543.792 C 153.060 544.645,151.740 545.848,151.079 546.465 C 149.142 548.271,147.806 549.497,145.345 551.724 C 144.073 552.876,142.496 554.317,141.842 554.926 C 141.187 555.536,140.235 556.422,139.726 556.897 C 139.217 557.371,138.104 558.396,137.252 559.175 C 136.401 559.954,135.805 560.591,135.927 560.591 C 136.049 560.591,136.218 560.841,136.301 561.145 C 136.428 561.608,136.493 561.638,136.696 561.330 C 136.889 561.036,136.939 561.087,136.942 561.579 C 136.944 561.927,137.161 562.331,137.438 562.504 C 137.709 562.674,137.931 562.923,137.931 563.058 C 137.931 563.430,140.095 565.485,140.297 565.305 C 140.394 565.219,140.387 565.297,140.281 565.480 C 140.106 565.781,144.592 570.380,147.044 572.414 C 147.453 572.752,147.980 573.207,148.216 573.423 C 149.164 574.292,153.209 577.340,153.415 577.340 C 153.535 577.340,153.764 577.496,153.923 577.688 C 154.890 578.853,160.220 581.824,161.878 582.121 C 162.382 582.212,162.881 582.420,162.986 582.585 C 163.272 583.031,165.123 584.236,165.522 584.236 C 166.244 584.236,168.927 585.306,169.951 586.003 C 171.521 587.070,182.227 589.149,192.857 590.452 C 199.603 591.278,214.622 591.278,220.813 590.451 C 226.842 589.645,236.659 587.624,237.989 586.914 C 238.224 586.789,238.889 586.591,239.467 586.474 C 241.718 586.021,248.891 583.239,252.094 581.577 C 252.500 581.366,253.026 581.103,253.264 580.991 C 254.087 580.604,256.170 579.491,257.512 578.722 C 262.319 575.968,268.087 571.042,271.203 567.030 C 272.007 565.995,272.830 564.972,273.032 564.758 C 273.234 564.543,273.399 564.276,273.399 564.165 C 273.399 564.054,273.676 563.599,274.015 563.155 C 274.353 562.711,274.631 562.297,274.631 562.234 C 274.631 562.171,275.068 561.399,275.603 560.519 C 283.741 547.123,288.466 530.095,289.422 510.714 C 289.542 508.276,289.813 503.953,290.024 501.108 C 290.423 495.717,290.679 487.624,291.128 466.256 C 291.510 448.052,291.811 440.158,292.241 437.069 C 292.448 435.579,292.678 433.639,292.752 432.759 C 292.825 431.878,293.061 430.216,293.276 429.064 C 293.836 426.070,293.901 425.616,293.935 424.446 C 293.952 423.870,294.036 423.399,294.122 423.399 C 294.207 423.399,294.331 423.122,294.395 422.783 C 294.460 422.445,294.410 422.167,294.283 422.167 C 294.157 422.167,294.234 421.987,294.455 421.766 C 294.675 421.546,294.798 421.213,294.726 421.027 C 294.655 420.842,294.704 420.690,294.835 420.690 C 294.967 420.690,295.075 420.329,295.077 419.889 C 295.079 419.449,295.362 418.205,295.707 417.125 C 296.052 416.045,296.284 414.970,296.223 414.735 C 296.162 414.501,296.196 414.276,296.299 414.236 C 296.649 414.099,296.851 413.054,296.527 413.054 C 296.360 413.054,296.301 413.132,296.395 413.226 M262.223 435.601 C 262.138 435.821,262.082 436.297,262.097 436.658 C 262.119 437.150,262.174 437.068,262.318 436.330 C 262.522 435.283,262.477 434.938,262.223 435.601 M261.804 442.426 C 261.661 442.894,261.655 443.370,261.792 443.454 C 261.887 443.513,261.987 443.291,262.014 442.963 C 262.053 442.495,261.901 442.108,261.804 442.426 M155.578 537.562 C 155.663 537.968,155.841 538.438,155.974 538.606 C 156.106 538.774,156.352 539.312,156.520 539.800 C 156.688 540.289,156.871 540.540,156.928 540.357 C 156.984 540.174,156.669 539.304,156.227 538.424 C 155.732 537.437,155.483 537.106,155.578 537.562 M133.415 557.100 C 133.664 557.551,134.024 558.050,134.215 558.209 C 134.683 558.597,134.223 557.771,133.484 556.897 L 132.964 556.281 133.415 557.100 " stroke="none" fill="#224ac7" fill-rule="evenodd"></path><path id="path3" d="M187.685 0.352 C 185.720 0.531,182.506 0.807,180.542 0.966 C 178.578 1.125,175.474 1.428,173.645 1.640 C 171.817 1.851,169.373 2.117,168.216 2.231 C 164.664 2.580,155.462 4.140,150.739 5.194 C 149.587 5.451,148.313 5.715,147.906 5.780 C 147.500 5.846,146.225 6.132,145.074 6.417 C 143.922 6.701,142.149 7.137,141.133 7.385 C 140.117 7.633,138.206 8.124,136.886 8.475 C 135.566 8.826,134.353 9.113,134.191 9.113 C 134.029 9.113,133.003 9.385,131.911 9.717 C 127.759 10.981,126.224 11.428,125.985 11.440 C 125.676 11.456,121.641 12.736,120.320 13.237 C 119.778 13.442,119.002 13.697,118.596 13.802 C 118.190 13.908,116.915 14.346,115.764 14.776 C 114.612 15.205,113.227 15.716,112.685 15.911 C 112.143 16.105,111.201 16.473,110.591 16.729 C 109.982 16.984,108.762 17.486,107.882 17.843 C 107.001 18.201,105.837 18.706,105.296 18.964 C 100.184 21.404,97.890 22.537,96.386 23.364 C 93.272 25.075,88.721 27.843,88.414 28.213 C 88.251 28.410,87.982 28.571,87.817 28.571 C 87.653 28.571,87.140 28.854,86.678 29.200 C 86.216 29.546,84.674 30.556,83.251 31.445 C 81.829 32.334,79.891 33.575,78.946 34.203 C 78.000 34.831,77.046 35.456,76.826 35.591 C 76.605 35.727,75.994 36.141,75.466 36.512 C 74.939 36.883,74.230 37.378,73.892 37.611 C 72.284 38.720,69.573 40.778,69.499 40.946 C 69.454 41.049,69.303 41.133,69.164 41.133 C 69.025 41.133,68.674 41.353,68.384 41.622 C 68.094 41.891,66.804 42.956,65.517 43.990 C 64.230 45.023,63.011 46.020,62.808 46.204 C 59.667 49.057,51.275 57.367,49.468 59.412 C 48.609 60.384,47.657 61.440,47.352 61.759 C 47.047 62.077,46.798 62.434,46.798 62.552 C 46.798 62.670,46.701 62.804,46.583 62.849 C 46.275 62.966,43.350 66.696,43.350 66.971 C 43.350 67.097,43.267 67.237,43.165 67.282 C 42.952 67.377,41.772 68.915,40.882 70.257 C 40.546 70.764,40.188 71.180,40.086 71.181 C 39.985 71.182,39.901 71.277,39.901 71.392 C 39.901 71.584,37.977 74.671,37.499 75.246 C 37.386 75.382,36.129 77.266,34.705 79.433 C 33.282 81.601,31.901 83.695,31.637 84.086 C 31.373 84.478,31.047 84.976,30.911 85.194 C 30.776 85.411,30.443 85.922,30.172 86.328 C 29.564 87.241,28.944 88.298,28.401 89.347 C 28.174 89.788,27.897 90.148,27.787 90.148 C 27.677 90.148,27.586 90.280,27.586 90.442 C 27.586 90.604,27.325 91.131,27.005 91.612 C 26.251 92.748,24.216 96.222,23.060 98.345 C 22.560 99.264,21.952 100.372,21.709 100.808 C 19.882 104.091,16.010 112.126,16.010 112.635 C 16.010 112.811,15.913 113.061,15.794 113.190 C 15.574 113.429,14.334 116.349,13.239 119.212 C 12.902 120.092,12.379 121.422,12.078 122.167 C 11.777 122.913,11.475 123.744,11.406 124.015 C 11.337 124.286,11.076 125.062,10.826 125.739 C 10.280 127.215,8.152 134.110,7.443 136.700 C 6.527 140.044,5.898 142.478,5.788 143.103 C 5.728 143.442,5.463 144.661,5.198 145.813 C 4.304 149.696,2.492 159.501,2.328 161.341 C 2.275 161.944,2.010 164.156,1.741 166.256 C 1.272 169.909,0.678 176.453,0.265 182.512 C 0.006 186.323,0.004 207.692,0.263 211.700 C 0.377 213.461,0.641 216.619,0.851 218.719 C 1.061 220.819,1.294 223.202,1.370 224.015 C 1.446 224.828,1.676 226.490,1.881 227.709 C 2.087 228.929,2.258 230.148,2.262 230.419 C 2.269 230.959,2.499 232.212,3.074 234.852 C 3.280 235.800,3.495 236.983,3.551 237.479 C 3.607 237.976,3.878 239.306,4.154 240.435 C 4.430 241.564,4.705 242.820,4.765 243.227 C 4.826 243.633,5.122 244.852,5.424 245.936 C 5.726 247.020,6.248 248.904,6.585 250.123 C 6.922 251.342,7.377 252.950,7.597 253.695 C 7.817 254.440,7.974 255.121,7.948 255.209 C 7.921 255.296,8.347 256.571,8.896 258.041 C 9.444 259.511,10.118 261.546,10.392 262.562 C 10.667 263.578,11.059 264.599,11.264 264.831 C 11.469 265.063,11.572 265.419,11.494 265.623 C 11.416 265.827,11.445 266.052,11.560 266.123 C 11.674 266.194,11.844 266.557,11.938 266.931 C 12.031 267.305,12.265 267.786,12.457 267.999 C 12.650 268.213,12.844 268.712,12.888 269.108 C 12.972 269.845,13.277 270.716,13.529 270.936 C 13.862 271.227,14.313 272.213,14.033 272.040 C 13.816 271.906,13.811 271.986,14.012 272.363 C 14.159 272.638,14.420 272.920,14.591 272.989 C 14.831 273.086,14.828 273.118,14.576 273.133 C 14.335 273.148,14.356 273.258,14.657 273.559 C 14.880 273.782,15.011 274.163,14.948 274.405 C 14.885 274.647,14.976 274.900,15.152 274.967 C 15.327 275.035,15.545 275.430,15.637 275.845 C 15.864 276.881,16.279 276.797,17.672 275.431 C 18.329 274.788,19.908 273.319,21.182 272.167 C 22.456 271.016,23.972 269.631,24.550 269.089 C 25.128 268.547,26.395 267.383,27.367 266.502 C 28.338 265.622,29.431 264.624,29.795 264.286 C 30.159 263.947,31.553 262.672,32.892 261.453 C 34.231 260.234,35.664 258.911,36.075 258.513 C 36.486 258.115,37.287 257.434,37.854 257.000 C 38.422 256.565,38.830 256.154,38.763 256.086 C 38.695 256.018,38.588 255.553,38.526 255.052 C 38.464 254.551,38.241 253.970,38.031 253.759 C 37.720 253.448,37.709 253.338,37.974 253.170 C 38.239 253.002,38.235 252.962,37.952 252.959 C 37.760 252.957,37.676 252.883,37.765 252.794 C 37.854 252.704,37.811 252.492,37.669 252.321 C 37.528 252.151,37.390 251.625,37.364 251.152 C 37.337 250.680,37.232 250.345,37.131 250.408 C 37.029 250.470,36.942 250.155,36.938 249.707 C 36.934 249.258,36.775 248.687,36.585 248.437 C 36.396 248.186,36.300 247.826,36.373 247.636 C 36.446 247.446,36.383 247.291,36.233 247.291 C 36.083 247.291,35.961 247.173,35.961 247.030 C 35.961 246.886,36.080 246.843,36.225 246.932 C 36.410 247.047,36.415 246.958,36.243 246.639 C 35.827 245.869,35.263 243.791,35.082 242.365 C 34.987 241.619,34.800 240.871,34.666 240.702 C 34.532 240.533,34.489 240.394,34.570 240.394 C 34.651 240.394,34.605 240.100,34.469 239.741 C 34.332 239.382,34.155 238.467,34.075 237.709 C 33.995 236.951,33.819 236.192,33.684 236.022 C 33.548 235.853,33.497 235.714,33.571 235.714 C 33.644 235.714,33.606 235.354,33.485 234.914 C 33.365 234.474,33.098 233.005,32.893 231.650 C 32.687 230.296,32.463 228.910,32.394 228.571 C 32.144 227.349,31.815 225.238,31.818 224.877 C 31.819 224.674,31.596 222.734,31.321 220.567 C 31.046 218.399,30.762 215.739,30.689 214.655 C 30.617 213.571,30.374 210.025,30.149 206.773 C 29.715 200.495,29.779 187.141,30.273 180.911 C 30.402 179.286,30.575 176.736,30.657 175.246 C 31.013 168.832,32.897 156.688,34.766 148.768 C 35.887 144.015,37.981 136.718,39.324 132.882 C 40.633 129.145,42.326 124.752,43.596 121.798 C 45.047 118.424,47.502 113.378,49.348 109.975 C 51.732 105.581,51.847 105.378,53.052 103.448 C 53.686 102.432,54.339 101.382,54.504 101.114 C 54.668 100.847,55.274 99.933,55.850 99.083 C 56.425 98.234,56.897 97.481,56.897 97.410 C 56.897 97.163,61.621 90.755,63.431 88.547 C 63.764 88.140,64.660 87.032,65.423 86.084 C 67.699 83.253,72.873 77.615,75.116 75.520 C 75.858 74.827,77.243 73.522,78.195 72.619 C 79.147 71.716,80.314 70.665,80.788 70.283 C 81.262 69.902,81.706 69.519,81.773 69.433 C 81.841 69.347,82.894 68.465,84.113 67.473 C 85.333 66.480,86.465 65.551,86.629 65.408 C 87.526 64.629,91.844 61.435,94.172 59.829 C 96.715 58.075,96.690 58.092,98.399 57.019 C 99.212 56.508,100.431 55.730,101.108 55.290 C 101.786 54.850,102.839 54.216,103.448 53.881 C 104.058 53.545,105.166 52.908,105.911 52.464 C 109.156 50.530,118.332 46.041,123.768 43.727 C 124.175 43.554,125.186 43.121,126.016 42.765 C 126.846 42.409,127.646 42.118,127.795 42.118 C 127.944 42.118,128.540 41.907,129.119 41.649 C 129.698 41.391,131.004 40.879,132.020 40.511 C 133.036 40.142,134.421 39.632,135.099 39.376 C 135.776 39.120,136.552 38.861,136.823 38.800 C 137.094 38.740,138.147 38.415,139.163 38.079 C 143.512 36.641,151.206 34.728,154.557 34.252 C 155.369 34.137,157.254 33.817,158.744 33.542 C 161.478 33.037,168.292 32.091,170.567 31.901 C 171.244 31.844,174.070 31.575,176.847 31.302 C 191.047 29.907,207.327 29.476,216.763 30.245 C 218.736 30.406,221.618 30.602,223.167 30.681 C 224.717 30.759,228.091 31.049,230.665 31.325 C 233.239 31.601,236.065 31.862,236.946 31.907 C 237.826 31.951,238.990 32.052,239.532 32.131 C 240.074 32.210,240.961 32.329,241.502 32.394 C 242.044 32.459,242.782 32.575,243.141 32.650 C 243.501 32.726,244.887 32.883,246.220 32.999 C 247.554 33.116,250.640 33.564,253.079 33.996 C 255.517 34.428,257.900 34.833,258.374 34.895 C 258.849 34.958,259.403 35.074,259.606 35.153 C 260.104 35.346,260.289 35.394,261.576 35.670 C 265.459 36.502,266.336 36.741,266.929 37.128 C 267.386 37.427,267.525 37.454,267.379 37.216 C 267.233 36.980,267.256 36.925,267.449 37.045 C 267.605 37.141,267.927 37.263,268.164 37.316 C 268.402 37.368,268.948 37.518,269.378 37.649 C 269.808 37.779,270.224 37.822,270.302 37.744 C 270.380 37.666,270.443 37.738,270.443 37.905 C 270.443 38.071,270.554 38.138,270.690 38.054 C 270.825 37.970,270.936 38.026,270.936 38.177 C 270.936 38.329,271.047 38.384,271.182 38.300 C 271.318 38.217,271.430 38.293,271.432 38.471 C 271.435 38.706,271.503 38.693,271.683 38.424 C 271.899 38.101,271.961 38.107,272.179 38.475 C 272.315 38.706,272.579 38.837,272.765 38.766 C 272.951 38.695,273.177 38.757,273.268 38.903 C 273.359 39.050,273.536 39.107,273.662 39.029 C 273.788 38.951,273.892 39.005,273.892 39.148 C 273.892 39.291,274.009 39.409,274.152 39.409 C 274.296 39.409,274.330 39.270,274.228 39.101 C 274.102 38.891,274.176 38.901,274.460 39.131 C 274.966 39.541,275.445 39.203,278.571 36.231 C 279.723 35.137,280.723 34.240,280.794 34.239 C 280.865 34.238,281.393 33.738,281.967 33.128 C 282.540 32.518,283.075 32.020,283.155 32.020 C 283.235 32.020,283.771 31.521,284.347 30.911 C 284.923 30.302,285.479 29.803,285.583 29.803 C 285.686 29.803,286.174 29.375,286.666 28.852 C 287.159 28.329,288.892 26.703,290.517 25.240 C 293.776 22.306,295.070 21.124,296.034 20.197 C 297.629 18.665,298.561 18.009,298.963 18.138 C 299.309 18.249,299.321 18.228,299.027 18.020 C 298.830 17.880,298.580 17.821,298.472 17.888 C 298.364 17.955,298.276 17.818,298.276 17.584 C 298.276 17.351,298.206 17.229,298.121 17.314 C 298.037 17.399,297.663 17.311,297.291 17.118 C 296.919 16.926,296.545 16.838,296.460 16.923 C 296.375 17.008,296.305 16.966,296.305 16.831 C 296.305 16.695,296.167 16.582,295.998 16.579 C 295.828 16.576,295.246 16.374,294.704 16.130 C 294.163 15.887,293.636 15.705,293.534 15.726 C 293.433 15.746,293.350 15.656,293.350 15.525 C 293.350 15.394,293.179 15.352,292.970 15.432 C 292.729 15.525,292.617 15.455,292.662 15.240 C 292.709 15.020,292.540 14.922,292.180 14.960 C 291.875 14.992,291.626 14.919,291.626 14.797 C 291.626 14.675,291.345 14.606,291.002 14.644 C 290.659 14.682,290.435 14.655,290.505 14.585 C 290.662 14.428,289.476 13.793,289.025 13.793 C 288.710 13.793,284.629 12.506,283.621 12.088 C 282.021 11.426,281.754 11.345,281.893 11.571 C 281.976 11.706,281.550 11.604,280.946 11.345 C 280.342 11.086,279.792 10.930,279.724 10.999 C 279.655 11.068,279.340 10.982,279.024 10.808 C 278.707 10.634,278.227 10.457,277.956 10.414 C 277.685 10.371,276.798 10.126,275.985 9.869 C 275.172 9.612,274.230 9.348,273.892 9.281 C 273.553 9.215,272.500 8.924,271.552 8.634 C 270.603 8.345,269.477 8.059,269.048 7.999 C 268.619 7.939,267.788 7.730,267.201 7.534 C 266.613 7.339,265.523 7.059,264.778 6.914 C 263.350 6.635,261.620 6.271,260.591 6.031 C 260.252 5.952,259.681 5.844,259.320 5.791 C 258.960 5.738,257.704 5.466,256.530 5.187 C 255.355 4.908,254.154 4.681,253.860 4.683 C 253.566 4.685,251.829 4.415,250.000 4.083 C 245.642 3.291,240.397 2.488,238.547 2.329 C 237.734 2.259,235.794 2.041,234.236 1.844 C 232.679 1.647,229.797 1.374,227.833 1.236 C 225.868 1.099,222.155 0.815,219.581 0.607 C 213.036 0.077,192.510 -0.088,187.685 0.352 M17.177 279.708 C 17.020 279.962,17.384 280.735,17.567 280.535 C 17.625 280.471,17.594 280.204,17.499 279.942 C 17.404 279.681,17.259 279.575,17.177 279.708 " stroke="none" fill="#0d8cfc" fill-rule="evenodd"></path><path id="path4" d="M386.653 116.872 C 386.777 117.143,386.941 117.531,387.016 117.734 C 387.135 118.053,387.156 118.051,387.173 117.719 C 387.183 117.508,387.020 117.120,386.809 116.857 C 386.432 116.387,386.430 116.387,386.653 116.872 M387.315 121.217 C 386.459 122.110,382.634 125.616,382.516 125.616 C 382.438 125.616,381.934 126.114,381.396 126.722 C 380.859 127.331,380.325 127.829,380.210 127.831 C 380.095 127.832,379.529 128.331,378.953 128.941 C 378.378 129.550,377.847 130.049,377.773 130.049 C 377.700 130.049,377.046 130.631,376.320 131.342 C 375.594 132.054,373.952 133.578,372.670 134.729 C 370.373 136.794,369.117 137.950,366.548 140.365 C 365.828 141.041,365.161 141.630,365.066 141.672 C 364.171 142.069,363.505 144.828,364.305 144.828 C 364.421 144.828,364.446 145.012,364.359 145.237 C 364.273 145.463,364.304 145.585,364.429 145.509 C 364.553 145.433,364.686 145.881,364.723 146.504 C 364.760 147.128,364.926 147.725,365.092 147.830 C 365.306 147.966,365.311 148.023,365.109 148.026 C 364.947 148.028,364.879 148.240,364.953 148.519 C 365.023 148.789,365.178 148.949,365.296 148.876 C 365.415 148.803,365.445 148.917,365.363 149.130 C 365.282 149.342,365.332 149.985,365.475 150.559 C 365.619 151.132,365.805 152.155,365.889 152.833 C 365.974 153.510,366.112 154.286,366.196 154.557 C 366.281 154.828,366.360 155.160,366.372 155.296 C 366.384 155.431,366.523 156.318,366.681 157.266 C 370.050 177.537,370.418 198.788,367.694 215.887 C 367.414 217.648,367.134 219.587,367.073 220.197 C 367.012 220.807,366.814 221.915,366.633 222.660 C 366.453 223.405,366.166 224.791,365.996 225.739 C 365.826 226.687,365.526 228.073,365.330 228.818 C 365.134 229.563,364.871 230.769,364.744 231.499 C 364.618 232.229,364.297 233.472,364.031 234.262 C 363.765 235.052,363.547 235.885,363.547 236.112 C 363.547 236.340,363.339 237.147,363.085 237.906 C 362.831 238.665,362.321 240.283,361.950 241.502 C 361.580 242.722,361.062 244.329,360.800 245.074 C 360.538 245.819,360.282 246.606,360.232 246.822 C 360.052 247.603,358.781 251.114,358.585 251.374 C 358.475 251.520,358.344 251.853,358.294 252.113 C 358.244 252.373,358.076 252.898,357.919 253.280 C 357.763 253.661,357.631 254.049,357.625 254.142 C 357.619 254.234,357.241 255.079,356.786 256.019 C 356.330 256.958,355.996 257.928,356.043 258.174 C 356.091 258.420,356.033 258.621,355.916 258.621 C 355.799 258.621,355.578 259.000,355.425 259.463 C 355.272 259.926,354.987 260.439,354.790 260.602 C 354.354 260.964,354.314 261.429,354.741 261.179 C 354.911 261.080,354.844 261.233,354.594 261.518 C 354.337 261.812,354.220 262.168,354.324 262.338 C 354.443 262.529,354.407 262.574,354.225 262.462 C 354.061 262.360,353.941 262.435,353.941 262.640 C 353.941 262.835,353.772 263.134,353.566 263.305 C 353.337 263.495,353.251 263.807,353.346 264.105 C 353.449 264.429,353.409 264.537,353.228 264.425 C 353.078 264.332,352.942 264.374,352.925 264.517 C 352.798 265.590,352.179 267.001,351.909 266.834 C 351.737 266.728,351.697 266.816,351.798 267.078 C 351.884 267.303,351.841 267.488,351.702 267.488 C 351.563 267.488,351.510 267.587,351.585 267.708 C 351.660 267.829,351.558 267.992,351.357 268.068 C 351.157 268.145,351.052 268.361,351.124 268.547 C 351.195 268.734,351.083 269.029,350.873 269.203 C 350.664 269.376,350.493 269.633,350.493 269.773 C 350.493 269.913,350.209 270.399,349.863 270.853 C 349.517 271.306,349.302 271.788,349.385 271.923 C 349.468 272.057,349.419 272.167,349.276 272.167 C 349.132 272.167,349.017 272.306,349.020 272.475 C 349.024 272.645,349.528 272.257,350.142 271.613 C 350.756 270.970,351.338 270.443,351.436 270.443 C 351.533 270.443,352.083 269.945,352.656 269.335 C 353.230 268.725,353.765 268.227,353.844 268.227 C 353.924 268.227,354.461 267.728,355.037 267.118 C 355.612 266.509,356.155 266.010,356.241 266.010 C 356.328 266.010,356.869 265.511,357.442 264.901 C 358.016 264.292,358.554 263.793,358.639 263.793 C 358.723 263.793,359.392 263.211,360.125 262.500 C 362.252 260.437,366.100 256.897,366.216 256.897 C 366.274 256.897,366.856 256.370,367.508 255.727 C 368.160 255.083,369.253 254.058,369.935 253.448 C 370.618 252.839,371.593 251.944,372.103 251.460 C 372.613 250.976,374.415 249.325,376.108 247.790 C 377.802 246.255,379.365 244.823,379.582 244.606 C 379.799 244.389,380.785 243.491,381.773 242.611 C 382.761 241.730,384.039 240.567,384.613 240.025 C 386.014 238.702,387.607 237.240,390.381 234.729 C 391.654 233.578,393.158 232.177,393.725 231.617 C 394.291 231.057,395.001 230.466,395.303 230.305 C 395.623 230.134,395.795 229.866,395.716 229.661 C 395.642 229.468,395.666 229.310,395.768 229.310 C 395.870 229.310,395.961 229.116,395.971 228.879 C 395.980 228.642,396.078 228.236,396.189 227.977 C 396.346 227.607,396.314 227.551,396.039 227.716 C 395.745 227.894,395.741 227.863,396.014 227.527 C 396.317 227.153,396.590 225.945,396.649 224.716 C 396.663 224.424,396.758 224.236,396.860 224.299 C 397.017 224.396,397.150 223.295,397.111 222.229 C 397.104 222.060,397.188 221.921,397.296 221.921 C 397.405 221.921,397.463 221.641,397.425 221.299 C 397.388 220.957,397.451 220.619,397.566 220.548 C 397.682 220.477,397.765 220.175,397.752 219.877 C 397.740 219.579,397.901 218.393,398.110 217.241 C 398.320 216.090,398.563 214.291,398.651 213.245 C 398.739 212.198,398.854 211.034,398.906 210.658 C 399.795 204.291,400.293 185.093,399.740 178.461 C 399.299 173.160,398.715 167.612,398.274 164.532 C 398.013 162.703,397.746 160.764,397.683 160.222 C 397.448 158.217,395.813 149.725,394.815 145.320 C 394.554 144.169,394.278 142.839,394.202 142.365 C 394.069 141.543,393.697 140.079,392.576 135.961 C 392.299 134.945,392.039 133.947,391.997 133.744 C 391.956 133.541,391.736 132.709,391.508 131.897 C 391.281 131.084,391.009 130.031,390.903 129.557 C 390.798 129.083,390.474 127.984,390.183 127.114 C 389.893 126.245,389.655 125.331,389.655 125.082 C 389.655 124.824,389.471 124.622,389.224 124.611 C 388.967 124.599,388.917 124.542,389.101 124.467 C 389.582 124.273,389.462 123.819,388.978 124.003 C 388.646 124.129,388.614 124.100,388.837 123.875 C 389.020 123.691,389.047 123.434,388.912 123.183 C 388.794 122.963,388.630 122.368,388.549 121.860 C 388.399 120.922,387.865 120.644,387.315 121.217 M298.130 193.596 C 298.130 195.831,298.167 196.746,298.213 195.628 C 298.258 194.510,298.258 192.682,298.213 191.564 C 298.167 190.446,298.130 191.361,298.130 193.596 M298.106 199.138 C 298.107 199.951,298.153 200.254,298.208 199.811 C 298.263 199.368,298.262 198.703,298.206 198.333 C 298.149 197.963,298.104 198.325,298.106 199.138 M291.605 202.306 C 291.933 202.710,292.857 203.321,292.857 203.134 C 292.857 203.087,292.497 202.785,292.057 202.462 C 291.561 202.100,291.389 202.040,291.605 202.306 M295.290 204.256 C 295.409 204.375,295.825 204.432,296.214 204.384 C 296.865 204.303,296.848 204.285,295.998 204.168 C 295.468 204.094,295.167 204.132,295.290 204.256 M248.890 233.253 C 248.644 233.525,248.501 233.805,248.572 233.876 C 248.644 233.947,248.886 233.725,249.110 233.382 C 249.601 232.633,249.503 232.575,248.890 233.253 M237.102 247.188 C 236.714 247.529,236.445 247.857,236.504 247.916 C 236.564 247.976,236.930 247.693,237.318 247.288 C 238.175 246.393,238.064 246.342,237.102 247.188 M235.083 249.323 L 234.360 250.123 235.160 249.400 C 235.600 249.002,235.961 248.642,235.961 248.599 C 235.961 248.409,235.757 248.576,235.083 249.323 M233.027 251.311 L 232.191 252.340 233.140 251.424 C 233.662 250.921,234.038 250.458,233.975 250.396 C 233.913 250.333,233.486 250.745,233.027 251.311 M196.121 265.940 C 196.493 265.996,197.103 265.996,197.475 265.940 C 197.848 265.884,197.543 265.837,196.798 265.837 C 196.053 265.837,195.748 265.884,196.121 265.940 M105.172 374.631 C 104.905 374.803,105.122 374.870,105.958 374.873 C 106.594 374.875,107.182 374.766,107.266 374.631 C 107.464 374.310,105.668 374.310,105.172 374.631 M109.436 376.023 C 108.920 376.499,107.999 377.360,107.389 377.938 C 106.780 378.515,105.006 380.131,103.448 381.529 C 100.166 384.474,99.172 385.398,97.555 387.007 C 96.908 387.651,96.321 388.177,96.251 388.177 C 96.180 388.177,95.369 388.898,94.449 389.778 C 93.528 390.659,92.683 391.379,92.570 391.379 C 92.457 391.379,92.365 391.546,92.365 391.749 C 92.365 391.952,92.250 392.118,92.110 392.118 C 91.949 392.118,91.967 392.322,92.159 392.672 C 92.327 392.977,92.488 393.371,92.517 393.547 C 92.547 393.723,92.863 394.249,93.219 394.717 C 93.576 395.184,93.799 395.567,93.716 395.567 C 93.555 395.567,95.180 397.188,97.797 399.640 C 99.985 401.691,103.448 405.528,103.448 405.902 C 103.448 406.009,103.597 406.221,103.780 406.372 C 104.113 406.649,106.646 410.324,107.451 411.700 C 108.340 413.219,110.341 417.505,111.088 419.493 C 111.514 420.625,112.075 422.108,112.335 422.788 C 112.595 423.468,112.808 424.183,112.808 424.376 C 112.808 424.570,113.080 425.732,113.413 426.958 C 114.151 429.679,114.983 434.672,115.280 438.167 C 115.401 439.595,115.665 442.371,115.867 444.335 C 116.069 446.299,116.296 449.569,116.372 451.601 C 116.448 453.633,116.563 456.238,116.629 457.389 C 116.694 458.541,116.914 462.586,117.118 466.379 C 117.321 470.172,117.547 473.885,117.618 474.631 C 117.690 475.376,117.782 477.343,117.823 479.002 C 117.864 480.661,117.967 482.089,118.053 482.174 C 118.138 482.260,118.142 482.814,118.061 483.406 C 117.961 484.132,118.004 484.483,118.193 484.483 C 118.347 484.483,118.445 484.398,118.411 484.295 C 118.377 484.193,119.070 483.455,119.951 482.657 C 120.831 481.858,121.971 480.779,122.485 480.258 C 122.998 479.737,123.506 479.310,123.614 479.310 C 123.723 479.310,124.245 478.815,124.775 478.209 C 125.305 477.603,125.850 477.101,125.985 477.094 C 126.121 477.086,126.665 476.584,127.195 475.979 C 127.725 475.373,128.248 474.877,128.356 474.877 C 128.464 474.877,128.973 474.450,129.486 473.929 C 129.999 473.408,131.749 471.782,133.374 470.317 C 136.528 467.474,137.555 466.535,139.425 464.778 C 145.443 459.126,146.794 457.985,146.817 458.534 C 146.829 458.807,146.888 458.863,146.964 458.674 C 147.034 458.500,147.009 458.168,146.910 457.935 C 146.811 457.703,146.686 456.238,146.633 454.680 C 146.580 453.122,146.520 451.681,146.499 451.478 C 146.479 451.275,146.549 450.845,146.656 450.523 C 146.799 450.094,146.772 449.987,146.554 450.122 C 146.324 450.264,146.321 450.185,146.539 449.778 C 146.694 449.488,146.761 449.153,146.687 449.034 C 146.613 448.915,146.499 447.726,146.432 446.392 C 146.366 445.057,146.258 443.190,146.193 442.241 C 146.128 441.293,145.960 438.799,145.819 436.700 C 145.678 434.600,145.394 431.773,145.187 430.419 C 144.980 429.064,144.706 427.151,144.578 426.167 C 144.297 423.996,143.765 421.527,142.965 418.671 C 142.635 417.492,142.365 416.386,142.365 416.213 C 142.365 415.923,141.967 414.763,140.606 411.084 C 139.847 409.030,137.607 404.376,136.577 402.709 C 136.284 402.235,135.671 401.127,135.215 400.246 C 134.759 399.366,134.173 398.334,133.914 397.953 C 133.655 397.572,133.170 396.741,132.836 396.106 C 132.503 395.470,131.977 394.563,131.668 394.089 C 131.358 393.615,130.365 392.090,129.459 390.700 C 126.816 386.641,121.806 381.093,119.747 379.942 C 119.520 379.815,119.189 379.566,119.010 379.388 C 118.830 379.210,118.598 379.064,118.494 379.064 C 118.389 379.064,117.981 378.786,117.588 378.447 C 117.194 378.108,116.736 377.881,116.571 377.944 C 116.405 378.007,116.183 377.905,116.078 377.717 C 115.824 377.262,113.573 376.309,113.240 376.515 C 113.096 376.604,113.049 376.562,113.136 376.421 C 113.289 376.175,112.826 375.938,111.161 375.409 C 110.444 375.181,110.293 375.235,109.436 376.023 M97.475 376.742 C 96.555 377.241,96.611 377.449,97.537 376.970 C 97.943 376.760,98.276 376.536,98.276 376.472 C 98.276 376.313,98.249 376.322,97.475 376.742 M95.505 377.929 C 95.268 378.109,95.074 378.324,95.074 378.406 C 95.074 378.684,95.773 378.290,95.909 377.937 C 96.071 377.514,96.052 377.514,95.505 377.929 M93.056 380.234 C 92.475 380.910,92.313 381.281,92.596 381.281 C 92.740 381.281,92.857 381.108,92.857 380.897 C 92.857 380.659,92.975 380.580,93.165 380.690 C 93.334 380.787,93.391 380.776,93.290 380.666 C 93.190 380.555,93.231 380.315,93.382 380.133 C 93.533 379.952,93.605 379.803,93.541 379.803 C 93.478 379.803,93.260 379.997,93.056 380.234 M146.855 462.808 C 146.855 463.282,146.906 463.476,146.968 463.239 C 147.030 463.002,147.030 462.614,146.968 462.377 C 146.906 462.140,146.855 462.334,146.855 462.808 " stroke="none" fill="#1c62dc" fill-rule="evenodd"></path></g></svg>